<svg xmlns="http://www.w3.org/2000/svg" width="11.483" height="11.483" viewBox="0 0 11.483 11.483"><defs><style>.a{fill:#16a085;}</style></defs><g transform="translate(0 -0.001)"><g transform="translate(0 0.001)"><path class="a" d="M10.86,4.941H6.543V.624A.774.774,0,0,0,5.742,0a.774.774,0,0,0-.8.623V4.941H.623a.774.774,0,0,0-.623.8.774.774,0,0,0,.623.8H4.94v4.317a.774.774,0,0,0,.8.623.774.774,0,0,0,.8-.623V6.544H10.86a.774.774,0,0,0,.623-.8A.774.774,0,0,0,10.86,4.941Z" transform="translate(0 -0.001)"/></g></g></svg>