<svg xmlns="http://www.w3.org/2000/svg" width="61.394" height="87.391" viewBox="0 0 61.394 87.391"><defs><style>.a{fill:#fff;}</style></defs><path class="a" d="M233.66,343.244l.265.3c-2.166,3.352-4.359,6.687-6.481,10.067a19.688,19.688,0,0,0-1.183,2.707,4.368,4.368,0,0,0,4.769-1.866c3.482-4.275,7-8.519,10.5-12.783a5.239,5.239,0,0,0,.844-1.25,1.369,1.369,0,0,0,.005-1.1c-.648-.974-1.374-1.91-2.761-1.8-1.347.1-2.7.123-4.043.286-2.758.337-5.5.786-8.262,1.112-2.059.243-4.14.308-6.194.58a5.588,5.588,0,0,0-1.705.914q.1.319.193.638l10.573.5c-4.507,2.078-9.038,3.932-13.608,5.687a80.017,80.017,0,0,1-42.358,4.644c-6.774-1.119-13.119-3.389-18.248-8.3-.681-.653-1.915-.729-2.893-1.072l-.553.478c.261.942.249,2.138.838,2.776a26.206,26.206,0,0,0,4.756,4.167,33.972,33.972,0,0,0,11.417,4.416,85.442,85.442,0,0,0,31.262.769c9.389-1.381,18.38-3.965,26.666-8.74C229.461,345.212,231.59,344.279,233.66,343.244Z" transform="translate(-368.548 41.251) rotate(-60)"/></svg>