<svg xmlns="http://www.w3.org/2000/svg" width="238.592" height="238.592" viewBox="0 0 238.592 238.592"><defs><style>.a{fill:none;stroke:#ed145b;stroke-width:6px;}.b{fill:#ed145b;fill-rule:evenodd;}</style></defs><g transform="translate(-68 -153)"><g transform="translate(-49 48)"><circle class="a" cx="116.296" cy="116.296" r="116.296" transform="translate(120 108)"/></g><path class="b" d="M770.976,510.035,802.345,541.4l31.368-31.368.035.035a4.247,4.247,0,0,1,6.007,6.007l.034.034L808.421,547.48l31.368,31.369-.034.035a4.247,4.247,0,0,1-6.007,6.006l-.035.035-31.368-31.368-31.368,31.368-.035-.035a4.247,4.247,0,1,1-6.006-6.006l-.035-.035,31.368-31.369L764.9,516.111l.034-.034a4.247,4.247,0,1,1,6.007-6.007Z" transform="translate(-614.691 -274.826)"/></g></svg>