<svg xmlns="http://www.w3.org/2000/svg" width="12.932" height="11.342" viewBox="0 0 12.932 11.342"><defs><style>.a{fill:#999;}</style></defs><g transform="translate(0 -31.479)"><g transform="translate(0 31.479)"><path class="a" d="M11.877,31.479H1.055A1.056,1.056,0,0,0,0,32.534v6.328a1.056,1.056,0,0,0,1.055,1.055h.617v2.6a.3.3,0,0,0,.513.213L5,39.917h6.876a1.056,1.056,0,0,0,1.055-1.055V32.534A1.056,1.056,0,0,0,11.877,31.479Zm0,7.836h-7a.3.3,0,0,0-.2.078h0l-.011.01L2.273,41.794V39.616a.219.219,0,0,0,0-.028.3.3,0,0,0-.3-.273H1.055A.454.454,0,0,1,.6,38.862V32.534a.454.454,0,0,1,.453-.453H11.877a.454.454,0,0,1,.453.453v6.328h0A.454.454,0,0,1,11.877,39.315Z" transform="translate(0 -31.479)"/></g><g transform="translate(2.341 33.675)"><path class="a" d="M94.736,118.437H92.983a.3.3,0,1,0,0,.6h1.753a.3.3,0,0,0,0-.6Z" transform="translate(-92.682 -118.437)"/></g><g transform="translate(2.341 35.397)"><g transform="translate(0 0)"><path class="a" d="M97.86,186.6H92.982a.3.3,0,1,0,0,.6H97.86a.3.3,0,1,0,0-.6Z" transform="translate(-92.681 -186.6)"/></g></g><g transform="translate(5.85 33.675)"><path class="a" d="M236.042,118.437H231.9a.3.3,0,0,0,0,.6h4.14a.3.3,0,0,0,0-.6Z" transform="translate(-231.601 -118.437)"/></g><g transform="translate(8.901 35.397)"><g transform="translate(0 0)"><path class="a" d="M353.8,186.6h-1.089a.3.3,0,1,0,0,.6H353.8a.3.3,0,1,0,0-.6Z" transform="translate(-352.406 -186.6)"/></g></g><g transform="translate(2.341 37.119)"><path class="a" d="M95.705,254.765H92.982a.3.3,0,0,0,0,.6h2.723a.3.3,0,0,0,0-.6Z" transform="translate(-92.681 -254.765)"/></g><g transform="translate(6.662 37.119)"><path class="a" d="M267.4,254.765H264.07a.3.3,0,1,0,0,.6H267.4a.3.3,0,0,0,0-.6Z" transform="translate(-263.769 -254.765)"/></g></g></svg>