<svg xmlns="http://www.w3.org/2000/svg" width="10.648" height="10.647" viewBox="0 0 10.648 10.647"><g transform="translate(0 -0.028)"><path d="M9.959.717a2.348,2.348,0,0,0-3.324,0L.541,6.809a.3.3,0,0,0-.086.175L0,10.328a.3.3,0,0,0,.086.256.31.31,0,0,0,.216.091.247.247,0,0,0,.041,0L2.361,10.4a.307.307,0,0,0-.082-.608L.663,10.01.979,7.678l2.455,2.455a.31.31,0,0,0,.216.091.3.3,0,0,0,.216-.091L9.959,4.041a2.347,2.347,0,0,0,0-3.324Zm-3.206.749L7.776,2.489,2.215,8.05,1.192,7.027Zm-3.1,8.018-1-1L8.212,2.922l1,1Zm5.987-6L7.191,1.037A1.739,1.739,0,0,1,9.639,3.485Z" transform="translate(0 0)"/></g></svg>