<svg xmlns="http://www.w3.org/2000/svg" width="15.522" height="15.52" viewBox="0 0 15.522 15.52"><defs><style>.a{fill:#fff;}</style></defs><g transform="translate(0)"><path class="a" d="M14.517,1.033a3.423,3.423,0,0,0-4.845,0L.788,9.913a.444.444,0,0,0-.126.255L0,15.042a.443.443,0,0,0,.126.374.452.452,0,0,0,.314.132.359.359,0,0,0,.06,0l2.937-.4a.447.447,0,0,0-.119-.886l-2.355.318.46-3.4,3.579,3.579a.452.452,0,0,0,.314.132.438.438,0,0,0,.314-.132l8.883-8.88a3.421,3.421,0,0,0,0-4.845ZM9.844,2.124l1.492,1.492L3.229,11.722,1.738,10.23ZM5.323,13.812,3.864,12.354l8.106-8.106,1.459,1.459Zm8.728-8.745L10.482,1.5a2.535,2.535,0,0,1,3.569,3.569Z" transform="translate(0 -0.028)"/></g></svg>