<svg xmlns="http://www.w3.org/2000/svg" xmlns:xlink="http://www.w3.org/1999/xlink" width="52.05" height="31.099" viewBox="0 0 52.05 31.099"><defs><style>.a{fill:none;}.b{clip-path:url(#a);}.c{fill:#fff;}</style><clipPath id="a"><rect class="a" width="52.05" height="31.099"/></clipPath></defs><g class="b" transform="translate(0)"><path class="c" d="M108.044,162.237c-7.057,0-14.557-2.086-14.557-5.953v-9.669h1.577v9.669c0,2.07,5.331,4.376,12.98,4.376s12.981-2.306,12.981-4.376v-9.669H122.6v9.669C122.6,160.151,115.1,162.237,108.044,162.237Z" transform="translate(-82.019 -131.138)"/><path class="c" d="M108.044,152.772a.792.792,0,0,1-.291-.056L82.517,142.688a.789.789,0,0,1,0-1.467l25.236-10.027a.791.791,0,0,1,.582,0l25.237,10.027a.79.79,0,0,1,0,1.467l-25.237,10.028A.788.788,0,0,1,108.044,152.772Zm-23.1-10.818,23.1,9.181,23.1-9.181-23.1-9.179Z" transform="translate(-82.019 -131.138)"/></g></svg>