<svg xmlns="http://www.w3.org/2000/svg" width="106" height="106" viewBox="0 0 106 106"><defs><style>.a,.d{fill:none;}.a{stroke:#636162;stroke-width:2px;}.b{fill:#636162;}.c{stroke:none;}</style></defs><g transform="translate(-135 -117)"><g class="a" transform="translate(135 117)"><circle class="c" cx="53" cy="53" r="53"/><circle class="d" cx="53" cy="53" r="52"/></g><path class="b" d="M101.027,117.515a1.348,1.348,0,0,0-.267-.211,8.278,8.278,0,0,0-10.266,1.153l-1.466,1.468V100.195a4.147,4.147,0,0,0-8.294,0v9.123a4.083,4.083,0,0,0-5.592-.753l-8.93,5.169a4.127,4.127,0,0,0-2.065,3.573v6.82a13.41,13.41,0,0,0,22.675,9.708l0,.019.23-.23.01-.01,13.963-13.965A1.506,1.506,0,0,0,101.027,117.515ZM85.391,132.332a11.338,11.338,0,0,1-19.171-8.207v-6.82a2.04,2.04,0,0,1,1.039-1.771l9.09-5.285a2.01,2.01,0,0,1,2.778.377l1.841,2.256a1.036,1.036,0,0,0,1.839-.655V100.195a2.073,2.073,0,0,1,4.147,0v20.729a2.051,2.051,0,0,0,1.331,1.918.908.908,0,0,0,.964-.207l2.71-2.71a6.225,6.225,0,0,1,7.075-1.213Z" transform="translate(104.854 59.399)"/><path class="b" d="M196.281,0a4.137,4.137,0,1,0,4.135,4.135A4.135,4.135,0,0,0,196.281,0Zm0,6.2a2.064,2.064,0,1,1,2.061-2.065A2.066,2.066,0,0,1,196.281,6.2Z" transform="translate(-6.558 143)"/><path class="b" d="M100.349,0a4.137,4.137,0,1,0,4.135,4.135A4.14,4.14,0,0,0,100.349,0Zm0,6.2a2.064,2.064,0,1,1,2.061-2.065A2.068,2.068,0,0,1,100.349,6.2Z" transform="translate(76.946 143)"/><path class="b" d="M292.367,0a4.138,4.138,0,1,0,4.13,4.137A4.141,4.141,0,0,0,292.367,0Zm0,6.2a2.064,2.064,0,1,1,2.057-2.065A2.068,2.068,0,0,1,292.367,6.2Z" transform="translate(-90.187 143)"/><path class="b" d="M100.349,96.048a4.138,4.138,0,1,0,4.134,4.137A4.14,4.14,0,0,0,100.349,96.048Zm0,6.2a2.064,2.064,0,1,1,2.061-2.065A2.068,2.068,0,0,1,100.349,102.25Z" transform="translate(76.946 59.399)"/><path class="b" d="M292.367,96.048a4.138,4.138,0,1,0,4.13,4.137A4.141,4.141,0,0,0,292.367,96.048Zm0,6.2a2.064,2.064,0,1,1,2.057-2.065A2.068,2.068,0,0,1,292.367,102.25Z" transform="translate(-90.187 59.399)"/></g></svg>