<svg xmlns="http://www.w3.org/2000/svg" xmlns:xlink="http://www.w3.org/1999/xlink" width="37.546" height="41.715" viewBox="0 0 37.546 41.715"><defs><style>.a,.c{fill:none;}.b{clip-path:url(#a);}.c{stroke:#fff;stroke-linecap:round;stroke-linejoin:round;}</style><clipPath id="a"><rect class="a" width="37.547" height="41.715"/></clipPath></defs><g class="b" transform="translate(0)"><path class="c" d="M333.261,290.163a11.959,11.959,0,0,1,8.813,3.327" transform="translate(-332.761 -269.586)"/><path class="c" d="M333.261,332.982a13.191,13.191,0,0,0,4.121-3.365" transform="translate(-332.761 -291.767)"/><path class="c" d="M366.826,298.071c-1.309-2.243-4.323-4.664-9.1-4.664-4.487,0-7.291,2.169-8.6,4.412" transform="translate(-341.679 -271.409)"/><path class="c" d="M382.245,259.428c1.953,1.327,3.811,4.5,3.811,5.74,0,2.393-.739,3.731-.877,7.7" transform="translate(-360.3 -252.306)"/><path class="c" d="M340.56,280.476c.646,1.066,3.73,4.543,13.151,4.543,6.562,0,9.337-4.038,12.478-4.543a18.12,18.12,0,0,0,7.273-3.225c.42-.476.448-3.954.448-5.692,0-4.879-1.738-13.74-4.487-17.273s-6.5-7.936-7.085-8.917-1.57-1.066-2.748-1.066h-6.7c-1.988,0-4.13,5.978-4.28,7.6l2.46.378,1.822,1.234,5.919-2.595" transform="translate(-336.865 -243.803)"/></g></svg>