<svg xmlns="http://www.w3.org/2000/svg" xmlns:xlink="http://www.w3.org/1999/xlink" width="39.172" height="48.951" viewBox="0 0 39.172 48.951"><defs><style>.a,.c{fill:none;}.b{clip-path:url(#a);}.c{stroke:#fff;stroke-linecap:round;stroke-linejoin:round;}</style><clipPath id="a"><rect class="a" width="39.172" height="48.951"/></clipPath></defs><g class="b" transform="translate(0)"><path class="c" d="M267.949,254.012c-5.764,1.52-9.984,6.144-10.113,11.648H286.3c-.128-5.5-4.349-10.128-10.113-11.648" transform="translate(-252.483 -242.186)"/><path class="c" d="M293.668,232.836a3.536,3.536,0,0,1,2.984,3.266h-6.92a3.537,3.537,0,0,1,2.984-3.266S293.474,232.822,293.668,232.836Z" transform="translate(-273.606 -228.158)"/><rect class="c" width="30.847" height="2.958" transform="translate(4.163 23.468)"/><path class="c" d="M288.437,242.519h-.66V246.4a16.277,16.277,0,0,1,8.24,0v-3.881h-.66" transform="translate(-272.311 -234.575)"/><rect class="c" width="5.071" height="7.395" transform="translate(5.574 26.427)"/><rect class="c" width="5.071" height="7.395" transform="translate(13.225 26.427)"/><rect class="c" width="5.071" height="7.395" transform="translate(20.876 26.427)"/><rect class="c" width="5.071" height="7.395" transform="translate(28.527 26.427)"/><path class="c" d="M283.125,319.135H253.372v4.226h31.481v-4.226Z" transform="translate(-249.527 -285.313)"/><rect class="c" width="0.052" height="4.129" transform="translate(19.56 0.5)"/><rect class="c" width="38.172" height="10.387" transform="translate(0.5 38.064)"/></g></svg>