<svg xmlns="http://www.w3.org/2000/svg" xmlns:xlink="http://www.w3.org/1999/xlink" width="49.527" height="43.519" viewBox="0 0 49.527 43.519"><defs><style>.a,.c,.d{fill:none;}.b{clip-path:url(#a);}.c{stroke:#fff;}.c,.d{stroke-linecap:round;stroke-linejoin:round;}.d{stroke:#b92b59;}</style><clipPath id="a"><rect class="a" width="49.527" height="43.519"/></clipPath></defs><g class="b"><path class="c" d="M771.575,848.77c-.449.036-.93.056-1.438.056-4.607,0-11.389-7.746-11.389-15.81,0-9.378,5.706-12.931,8.705-12.931,5.249,0,5.909,2.4,8.083,2.4" transform="translate(-758.248 -811.131)"/><path class="c" d="M818.437,823.378a8.045,8.045,0,0,0-5.765-3.292c-5.249,0-5.909,2.4-8.083,2.4" transform="translate(-787.301 -811.131)"/><path class="c" d="M792.331,806.506s3.529,1.092,4.548,7.343" transform="translate(-779.532 -802.525)"/><path class="c" d="M810.773,797c-1.306.077-6.529,2.339-6.529,10.371,0,0,6.881-3.73,6.5-5.927A8.989,8.989,0,0,1,810.773,797Z" transform="translate(-787.082 -796.5)"/><path class="c" d="M870.382,825.008l-2.683-2.1-1.418,3.363" transform="translate(-826.399 -812.922)"/><path class="c" d="M883.337,836.688l2.1,2.683-3.362,1.417" transform="translate(-836.406 -821.653)"/><path class="c" d="M874.411,831.521l4.031-3.254-2.706-2.706-3.277,4.007" transform="translate(-830.314 -814.601)"/><path class="c" d="M802.9,864.666a1.537,1.537,0,0,1-2.011-2.012l12.9-21.9a7.865,7.865,0,0,1,8.314-3.562l.216.061a9.146,9.146,0,0,1,6.241,6.4,7.8,7.8,0,0,1-3.584,8.016Z" transform="translate(-784.861 -821.837)"/><line class="c" x2="4.664" y2="4.665" transform="translate(28.698 19.317)"/><line class="d" x2="3.381" y2="3.381" transform="translate(26.613 22.857)"/><line class="c" x2="3.125" y2="3.125" transform="translate(27.34 31.885)"/><line class="c" x2="2.099" y2="2.099" transform="translate(19.553 35.049)"/><line class="c" x1="5.379" y2="3.125" transform="translate(14.292 10.445)"/></g></svg>