<svg xmlns="http://www.w3.org/2000/svg" xmlns:xlink="http://www.w3.org/1999/xlink" width="8.259" height="11.216" viewBox="0 0 8.259 11.216"><defs><style>.a{fill:none;}.b{clip-path:url(#a);}.c{fill:#2a2a2a;}</style><clipPath id="a"><rect class="a" width="8.259" height="11.216"/></clipPath></defs><g class="b" transform="translate(0)"><path class="c" d="M17.012,0a4.134,4.134,0,0,0-4.129,4.129,4.028,4.028,0,0,0,.361,1.686,26.035,26.035,0,0,0,3.594,5.321.23.23,0,0,0,.348,0A26.048,26.048,0,0,0,20.78,5.815a4.026,4.026,0,0,0,.361-1.686A4.134,4.134,0,0,0,17.012,0Zm0,6.274a2.145,2.145,0,1,1,2.145-2.145A2.147,2.147,0,0,1,17.012,6.274Z" transform="translate(-12.883)"/></g></svg>