<svg xmlns="http://www.w3.org/2000/svg" xmlns:xlink="http://www.w3.org/1999/xlink" width="42.49" height="32.684" viewBox="0 0 42.49 32.684"><defs><style>.a{fill:none;}.b{clip-path:url(#a);}.c{fill:#fff;}</style><clipPath id="a"><rect class="a" width="42.49" height="32.684"/></clipPath></defs><g class="b" transform="translate(0)"><path class="c" d="M279.975,89.837a.625.625,0,0,0,.625.625h8.1a2.262,2.262,0,0,1,2.26,2.259.625.625,0,0,0,1.25,0,3.514,3.514,0,0,0-3.51-3.509h-8.1A.625.625,0,0,0,279.975,89.837Z" transform="translate(-252.476 -66.611)"/><path class="c" d="M274.218,82.272a.624.624,0,0,0,.883,0l5.729-5.729a2.324,2.324,0,0,1,3.2,0,.625.625,0,1,0,.883-.884,3.6,3.6,0,0,0-4.962,0l-5.729,5.729A.623.623,0,0,0,274.218,82.272Z" transform="translate(-252.476 -66.611)"/><path class="c" d="M252.476,86.384a12.926,12.926,0,0,0,12.911,12.911,13.151,13.151,0,0,0,1.569-.1,6.275,6.275,0,0,0,1.086.1h20.651a6.272,6.272,0,1,0,0-12.545h-5.412l3.792-3.792a6.273,6.273,0,0,0-8.87-8.872l-3.2,3.178c-.742-1.123-1.626-2.339-2.706-3.708a50.755,50.755,0,0,0-6.5-6.791.6.6,0,0,0-.07-.04.542.542,0,0,0-.083-.055c-.013-.006-.027-.01-.04-.015a.536.536,0,0,0-.1-.022.551.551,0,0,0-.1-.018c-.007,0-.012,0-.02,0s-.013,0-.021,0a.618.618,0,0,0-.094.017.528.528,0,0,0-.1.023l-.039.015a.543.543,0,0,0-.083.055.486.486,0,0,0-.07.04,50.827,50.827,0,0,0-6.5,6.791,38.835,38.835,0,0,0-4.434,6.665c-.177.325-.319.666-.467,1a.6.6,0,0,0-.077.166A12.937,12.937,0,0,0,252.476,86.384Zm1.25,0a11.669,11.669,0,0,1,.62-3.685l7.908,7.908a6.252,6.252,0,0,0,1.967,7.379A11.677,11.677,0,0,1,253.726,86.384Zm17.594-3.692,4.059,4.058h-7.337a6.267,6.267,0,0,0-.872.068Zm22.4,10.331a5.028,5.028,0,0,1-5.023,5.022H268.042a5.014,5.014,0,0,1-3.588-8.526l.086-.086a5,5,0,0,1,3.5-1.433h9.7v9.372a.625.625,0,0,0,1.25,0V88h9.7A5.028,5.028,0,0,1,293.716,93.023Zm-14.63-18.052a5.023,5.023,0,1,1,7.1,7.1l-4.676,4.676h-4.367l-4.939-4.94ZM266.012,86.206V83.9l7.138-7.137c.346.486.66.95.952,1.4Zm5.308-11.875c.388.491.743.957,1.083,1.412l-6.391,6.39V68.651A48.791,48.791,0,0,1,271.32,74.331Zm-11.866,0a48.962,48.962,0,0,1,5.308-5.68V82.093l-6.373-6.374C258.724,75.272,259.074,74.813,259.454,74.331Zm-1.812,2.409,7.12,7.121v3.588L263.7,88.507a6.3,6.3,0,0,0-.819.959l-8.029-8.03c.1-.213.185-.432.3-.64A29.746,29.746,0,0,1,257.642,76.74Z" transform="translate(-252.476 -66.611)"/></g></svg>