<svg xmlns="http://www.w3.org/2000/svg" width="12.352" height="11.877" viewBox="0 0 12.352 11.877"><g transform="translate(0 -9.562)"><g transform="translate(0 9.562)"><path d="M10.927,16.5V10.512a.953.953,0,0,0-.95-.95H.95a.953.953,0,0,0-.95.95v9.026a.953.953,0,0,0,.95.95H7.744a2.6,2.6,0,0,0,2,.95A2.613,2.613,0,0,0,10.927,16.5ZM.475,10.512a.449.449,0,0,1,.475-.475H9.976a.449.449,0,0,1,.475.475v1.425H.475Zm.475,9.5a.449.449,0,0,1-.475-.475V12.412h9.976v3.9a3.666,3.666,0,0,0-.713-.1,2.636,2.636,0,0,0-2.613,2.613,2.575,2.575,0,0,0,.285,1.188Zm8.789.95a2.138,2.138,0,1,1,2.138-2.138A2.129,2.129,0,0,1,9.739,20.964Z" transform="translate(0 -9.562)"/><path d="M327.025,316.987v-1.425h-.475v1.425h-1.425v.475h1.425v1.425h.475v-1.425h1.425v-.475Z" transform="translate(-317.049 -307.961)"/></g></g></svg>