<svg xmlns="http://www.w3.org/2000/svg" width="15.756" height="18.907" viewBox="0 0 15.756 18.907"><defs><style>.a{fill:#fff;}</style></defs><g transform="translate(0 2.757)"><path class="a" d="M58.358,87.857,57,85.6a6.7,6.7,0,0,1-.954-3.446V80.182a5.515,5.515,0,1,0-11.029,0v1.975a6.7,6.7,0,0,1-.954,3.446l-1.353,2.255a.394.394,0,0,0,.338.6H58.02a.394.394,0,0,0,.338-.6Zm-14.61-.191.995-1.658a7.483,7.483,0,0,0,1.067-3.851V80.182a4.727,4.727,0,0,1,9.453,0v1.975a7.489,7.489,0,0,0,1.066,3.851l1,1.658Z" transform="translate(-42.657 -74.667)"/></g><g transform="translate(6.303)"><path class="a" d="M214.909,0a1.577,1.577,0,0,0-1.576,1.576V3.151a.394.394,0,0,0,.788,0V1.576a.788.788,0,0,1,1.576,0V3.151a.394.394,0,0,0,.788,0V1.576A1.577,1.577,0,0,0,214.909,0Z" transform="translate(-213.333)"/></g><g transform="translate(5.909 15.756)"><path class="a" d="M206.34,426.874a.394.394,0,0,0-.681.4,1.182,1.182,0,1,1-2.047,0,.394.394,0,0,0-.681-.4,1.97,1.97,0,1,0,3.408,0Z" transform="translate(-202.666 -426.68)"/></g></svg>