<svg xmlns="http://www.w3.org/2000/svg" xmlns:xlink="http://www.w3.org/1999/xlink" width="34.23" height="40.05" viewBox="0 0 34.23 40.05"><defs><style>.a,.c{fill:none;}.b{clip-path:url(#a);}.c,.d{stroke:#fff;stroke-linecap:round;stroke-linejoin:round;}.d{fill:#fff;}</style><clipPath id="a"><rect class="a" width="34.23" height="40.05"/></clipPath></defs><g class="b" transform="translate(0)"><path class="c" d="M468.089,66.828A12.445,12.445,0,0,1,488.543,57.3V45.981a1.413,1.413,0,0,0-1.431-1.385H461.185a1.413,1.413,0,0,0-1.432,1.385V82.261a1.413,1.413,0,0,0,1.432,1.385h25.927a1.413,1.413,0,0,0,1.431-1.385v-5.9a12.445,12.445,0,0,1-20.454-9.528Z" transform="translate(-459.253 -44.096)"/><line class="d" x2="18.116" transform="translate(5.933 6.455)"/><line class="d" x2="7.424" transform="translate(5.933 12.936)"/><line class="d" x2="3.943" transform="translate(5.933 17.81)"/><line class="d" x2="2.903" transform="translate(5.933 22.684)"/><line class="d" x2="3.833" transform="translate(5.933 27.558)"/><line class="d" x2="7.535" transform="translate(5.933 32.432)"/><path class="c" d="M502.615,73.821a12.442,12.442,0,1,0,4.44,9.527A12.4,12.4,0,0,0,502.615,73.821Z" transform="translate(-473.325 -60.616)"/><path class="c" d="M498.243,97.053l4.483,4.484,9.084-9.085" transform="translate(-483.425 -74.15)"/></g></svg>