<svg xmlns="http://www.w3.org/2000/svg" width="16.081" height="14.75" viewBox="0 0 16.081 14.75"><defs><style>.a{fill:#636162;}</style></defs><g transform="translate(0 0)"><path class="a" d="M13.92,22.274a7.374,7.374,0,0,0-10.5.066.4.4,0,0,0,.569.556,6.579,6.579,0,1,1-1.869,4.592v-.083l.655.655a.4.4,0,0,0,.281.116.4.4,0,0,0,.281-.116.4.4,0,0,0,0-.562l-1.33-1.333a.4.4,0,0,0-.562,0L.117,27.5a.4.4,0,0,0,.281.678.4.4,0,0,0,.281-.116l.655-.655v.083A7.374,7.374,0,0,0,13.924,32.7a7.377,7.377,0,0,0,0-10.429Z" transform="translate(0 -20.113)"/><path class="a" d="M161.889,113.413a2.341,2.341,0,0,0-2.339,2.339v1.128h-.728a.4.4,0,0,0-.4.4v3.96a.4.4,0,0,0,.4.4h6.138a.4.4,0,0,0,.4-.4v-3.957a.4.4,0,0,0-.4-.4h-.728v-1.128A2.347,2.347,0,0,0,161.889,113.413Zm-1.545,2.343a1.545,1.545,0,1,1,3.09,0v1.128h-3.09v-1.128Zm4.219,5.085h-5.344v-3.166h5.344Z" transform="translate(-153.183 -110.326)"/></g></svg>