<svg xmlns="http://www.w3.org/2000/svg" width="130" height="130" viewBox="0 0 130 130"><defs><style>.a,.d,.f{fill:none;}.a{stroke:#2a2a2a;}.b{fill:#2a2a2a;}.c{fill:#ed145b;}.d{stroke:#1a36a8;stroke-linecap:round;stroke-miterlimit:10;stroke-width:4px;}.e{stroke:none;}</style></defs><g transform="translate(-120 -108)"><g class="a" transform="translate(120 108)"><circle class="e" cx="65" cy="65" r="65"/><circle class="f" cx="65" cy="65" r="64.5"/></g><g transform="translate(-29.926 31.995)"><path class="b" d="M224.953,429.87a2.078,2.078,0,1,1,2.078-2.078A2.081,2.081,0,0,1,224.953,429.87Zm0-3.087a1.008,1.008,0,1,0,1.008,1.008A1.009,1.009,0,0,0,224.953,426.783Z" transform="translate(-36.746 -248.846)"/><path class="b" d="M411.245,287.408a4.485,4.485,0,0,1-2.862-1.107c-.391-.371-.721-.692-1-.969a.535.535,0,0,1,.755-.76c.274.273.6.588.981.952.345.325,2.053,1.418,3.5.366a3.111,3.111,0,0,0,1.286-2.081,3.39,3.39,0,0,0-.776-2.583q-.221-.285-.433-.546a.535.535,0,0,1,.832-.674c.145.179.292.366.444.56a4.5,4.5,0,0,1,.992,3.392,4.166,4.166,0,0,1-1.717,2.8A3.345,3.345,0,0,1,411.245,287.408Z" transform="translate(-178.027 -137.028)"/><path class="b" d="M384.067,314.92a3.006,3.006,0,0,1-1.308-.3,3.549,3.549,0,0,1-1.76-1.9.535.535,0,1,1,1.017-.332,2.52,2.52,0,0,0,1.2,1.271,2.054,2.054,0,0,0,1.669.033,2.82,2.82,0,0,0,1.8-1.763.535.535,0,1,1,1.015.338,3.889,3.889,0,0,1-2.43,2.426A3.381,3.381,0,0,1,384.067,314.92Z" transform="translate(-157.907 -161.363)"/><path class="b" d="M195.446,370.635a.535.535,0,0,1-.468-.275l-10.4-18.691-8.822,4.86a.535.535,0,0,1-.581-.9l9.3-5.17a.535.535,0,0,1,.758.189l10.681,19.191a.536.536,0,0,1-.467.8Z" transform="translate(0 -191.108)"/><path class="b" d="M218.947,261.209a.535.535,0,0,1-.309-.973l3.654-2.571,3.076-24.79,5.612-2.633a.535.535,0,1,1,.455.969l-5.078,2.382L223.3,258.268l-4.041,2.844A.535.535,0,0,1,218.947,261.209Z" transform="translate(-33.325 -99.005)"/><path class="b" d="M270.173,296.3a.535.535,0,0,1-.274-1c1.77-1.053,6.556-4,7.425-4.988l.147-.166.221-.014c10.2-.638,12.92-10.8,12.946-10.9l.017-.065.031-.058,8.146-15.02.02-.028a3.718,3.718,0,0,0-6.027-4.356l-3.934,6.475a.535.535,0,1,1-.915-.555l3.968-6.529a4.789,4.789,0,0,1,7.8,5.562l-8.085,14.908c-.266.93-3.345,10.844-13.69,11.619-1.442,1.4-6.881,4.653-7.521,5.033A.536.536,0,0,1,270.173,296.3Z" transform="translate(-72.583 -119.633)"/><path class="c" d="M405.132,238.257a.535.535,0,0,1-.154-1.048l14.9-4.492a2.65,2.65,0,0,0,1.768-3.3l-1.841-6.085a.535.535,0,1,1,1.024-.31l1.841,6.085a3.72,3.72,0,0,1-2.483,4.639l-14.9,4.493A.537.537,0,0,1,405.132,238.257Z" transform="translate(-176.012 -93.216)"/><path class="c" d="M286.457,207.959a3.726,3.726,0,0,1-3.563-2.643l-6.151-20.324a3.725,3.725,0,0,1,2.483-4.639l17.137-5.186a.535.535,0,0,1,.31,1.025l-17.137,5.185a2.654,2.654,0,0,0-1.77,3.3l6.151,20.324a2.653,2.653,0,0,0,3.3,1.769l3.682-1.1a.535.535,0,0,1,.31,1.025l-3.682,1.1A3.715,3.715,0,0,1,286.457,207.959Z" transform="translate(-77.907 -56.817)"/><path class="c" d="M304.539,197.826a14.076,14.076,0,0,1-2-2.823l-23.3,6.978,2.033,6.657L309,200.376A10.63,10.63,0,0,1,304.539,197.826Z" transform="translate(-79.948 -72.037)"/><path class="d" d="M417.889,293.854" transform="translate(-186.199 -147.794)"/><g transform="translate(224.161 101.005)"><path class="b" d="M465.055,125.843a.536.536,0,0,1-.535-.535V101.931a.535.535,0,0,1,1.071,0v23.377A.535.535,0,0,1,465.055,125.843Z" transform="translate(-446.097 -101.305)"/><path class="b" d="M467.118,125.723a.535.535,0,0,1-.3-.982,13.739,13.739,0,0,0,5.258-11.637c-.294-8.316-5.153-10.745-5.36-10.845a.535.535,0,0,1,.459-.967c.23.109,5.652,2.772,5.971,11.774a14.555,14.555,0,0,1-5.738,12.568A.529.529,0,0,1,467.118,125.723Z" transform="translate(-447.55 -101.186)"/><path class="b" d="M438.551,109.981a.536.536,0,0,1-.529-.618c.667-4.251,5.016-7.85,5.2-8a.535.535,0,0,1,.678.829c-.042.034-4.218,3.494-4.821,7.338A.535.535,0,0,1,438.551,109.981Z" transform="translate(-425.784 -101.186)"/><path class="b" d="M457.9,135H441.4a.535.535,0,0,1,0-1.071h16.5a.535.535,0,0,1,0,1.071Z" transform="translate(-427.971 -126.235)"/><path class="b" d="M471.161,168.458H459.039a.535.535,0,0,1,0-1.071h12.122a.535.535,0,0,1,0,1.071Z" transform="translate(-441.486 -151.878)"/><path class="c" d="M393.6,157.521a7.938,7.938,0,1,1,7.938-7.938A7.947,7.947,0,0,1,393.6,157.521Zm0-14.8a6.867,6.867,0,1,0,6.867,6.867A6.875,6.875,0,0,0,393.6,142.716Z" transform="translate(-385.663 -132.15)"/><path class="c" d="M408.893,169.7a.536.536,0,0,1-.431-.218l-2.2-2.986a.535.535,0,1,1,.861-.635l1.724,2.338,2.484-4.164a.535.535,0,0,1,.919.548l-2.9,4.856a.536.536,0,0,1-.434.26Z" transform="translate(-401.368 -149.111)"/><path class="b" d="M430.626,125.732a12.447,12.447,0,0,1-2.98-.362.535.535,0,0,1,.257-1.039,11.294,11.294,0,1,0-7.3-16.168.535.535,0,1,1-.949-.494,12.365,12.365,0,1,1,10.975,18.064Z" transform="translate(-411.664 -101.005)"/></g></g></g></svg>