<svg xmlns="http://www.w3.org/2000/svg" xmlns:xlink="http://www.w3.org/1999/xlink" width="41.186" height="40.973" viewBox="0 0 41.186 40.973"><defs><style>.a,.c{fill:none;}.b{clip-path:url(#a);}.c{stroke:#fff;stroke-linecap:round;stroke-linejoin:round;stroke-width:0.9px;}</style><clipPath id="a"><rect class="a" width="41.186" height="40.973"/></clipPath></defs><g class="b" transform="translate(0 0)"><path class="c" d="M454.775,94.328l-.022-.007-.009,0c-.59-.13-1.2-.242-1.829-.356-3.025-.543-6.439-1.252-7.818-4.357a9.852,9.852,0,0,1-.354-1.342c-.029.116-.053.231-.073.34" transform="translate(-441.13 -78.234)"/><path class="c" d="M441.677,112.561a4.334,4.334,0,0,0,.985,3.829,5,5,0,0,0,4.186,1.294c1.743-.262,3-1.559,4.536-2.3a2.016,2.016,0,0,1,1.082-.205c1.983.2.747,2.785-.047,3.575a9.414,9.414,0,0,1,3.992-.623,10.2,10.2,0,0,0,2.691.194,4.965,4.965,0,0,0,2.805-1.728" transform="translate(-441.13 -78.234)"/><path class="c" d="M459.648,103.671a5.138,5.138,0,0,0-1.305-.983c-.342-.18-1.073-.461-1.073-.461a14.4,14.4,0,0,1-1.972,2.658c-1.187,1.256-1.882,1.365-2.449,1.375a1.289,1.289,0,0,1-1.291-1.167c-.035-.347-.075-.665-.075-.665l-1.842-.676.134-.894-1.078-.447-.219-1.977a3.871,3.871,0,0,1-2.289-.343,6.049,6.049,0,0,0,.462-5.21s-2.082-2.672-2.111-4.5a8.63,8.63,0,0,1,.129-1.773l-.318.427a16.648,16.648,0,0,0-2.484,7.2c-.434,4.543,1.981,8.345,3.429,12.472a6.523,6.523,0,0,1,.448,2.186c-.016,1.174-1.016,2.464-2.258,1.671" transform="translate(-441.13 -78.234)"/><path class="c" d="M444.734,88.121a11.5,11.5,0,0,1,3.477-6.551,11.919,11.919,0,0,1,8.308-2.886,14.407,14.407,0,0,1,7.808,2.4,14.592,14.592,0,0,1,5.727,8.235" transform="translate(-441.13 -78.234)"/><path class="c" d="M454.744,94.319l.009,0,.022.007c3.593,1.189,4.86,5.577,4.87,8.948,0,.875.027,1.758.1,2.635" transform="translate(-441.13 -78.234)"/><path class="c" d="M478.487,99.631a6.418,6.418,0,0,0-3.081-1.736" transform="translate(-441.13 -78.234)"/><path class="c" d="M474.464,95.34a2.126,2.126,0,0,1,1.058-.437,2.876,2.876,0,0,1,.629-.013c2.414.217,4.378,2.717,5.239,4.773.354.846.82,2.14.155,2.951-.819,1-2.534.411-3.608.243-1.843-.29-4.45-.8-4.529-3.128" transform="translate(-441.13 -78.234)"/><path class="c" d="M476.306,99.636a1.831,1.831,0,0,0-.9-1.741,6.6,6.6,0,0,0-5.406.048,6.421,6.421,0,0,0-3.007,3.165" transform="translate(-441.13 -78.234)"/><path class="c" d="M465.488,92.889a4.935,4.935,0,0,1,1.035,2.512" transform="translate(-441.13 -78.234)"/><path class="c" d="M464.937,96.752c-1.769-.279-1.911-2.314-1.959-3.746-.028-.835-.317-2.2.523-2.728.681-.431,1.623.046,2.235.395,1.487.849,3.209,2.581,3.147,4.442a2.146,2.146,0,0,1-.068.478,1.628,1.628,0,0,1-.433.766" transform="translate(-441.13 -78.234)"/><path class="c" d="M465.28,94.551a1.407,1.407,0,0,1,1.243.85,5.208,5.208,0,0,1,.165,3.09" transform="translate(-441.13 -78.234)"/><path class="c" d="M471.755,111.5a8.66,8.66,0,0,1,2.4,1.6,3.318,3.318,0,0,1,1.285,2.448c-.069,1.323-1.425,2.152-1.9,2.441a4.849,4.849,0,0,1-3.482.5,3.4,3.4,0,0,1-1.8-1.062,2.091,2.091,0,0,1-.194-1.786" transform="translate(-441.13 -78.234)"/><path class="c" d="M468.812,110.67a.938.938,0,1,1,1.141.677A.939.939,0,0,1,468.812,110.67Z" transform="translate(-441.13 -78.234)"/><path class="c" d="M474.7,113.685l.009,0a2.379,2.379,0,0,0,2.716-.892,4.9,4.9,0,0,0,.688-3.452c-.119-.54-.45-2.1-1.68-2.6a2.731,2.731,0,0,0-2.011.085" transform="translate(-441.13 -78.234)"/><path class="c" d="M469.638,111.373a.938.938,0,1,1,1.018-.852A.937.937,0,0,1,469.638,111.373Z" transform="translate(-441.13 -78.234)"/><path class="c" d="M467.866,104.79l0-.009a2.743,2.743,0,0,1,.6-1.909c.879-.984,2.458-.788,3.01-.71a4.85,4.85,0,0,1,3.028,1.783,2.388,2.388,0,0,1-.074,2.877,12.1,12.1,0,0,1-2.857,2.277" transform="translate(-441.13 -78.234)"/><path class="c" d="M470.575,110.826a.938.938,0,1,1-.466-1.242A.937.937,0,0,1,470.575,110.826Z" transform="translate(-441.13 -78.234)"/><path class="c" d="M463.784,110.313a2.723,2.723,0,0,1-1.615-1.193c-.646-1.155.073-2.583.319-3.073a4.825,4.825,0,0,1,2.7-2.265,2.4,2.4,0,0,1,2.679,1.008l0,.009a12.142,12.142,0,0,1,1.206,3.463" transform="translate(-441.13 -78.234)"/><path class="c" d="M470.371,109.761a.938.938,0,1,1-1.327.028A.939.939,0,0,1,470.371,109.761Z" transform="translate(-441.13 -78.234)"/><path class="c" d="M467.449,110.327a12.14,12.14,0,0,0-3.66-.015,2.4,2.4,0,0,0-1.853,2.2,4.849,4.849,0,0,0,1.241,3.291c.386.4,1.488,1.544,2.795,1.324a3.474,3.474,0,0,0,2.241-1.731,9.117,9.117,0,0,0,.719-1.532,7.909,7.909,0,0,0,.321-1.156" transform="translate(-441.13 -78.234)"/><path class="c" d="M469.3,109.6a.938.938,0,1,1-.414,1.261A.939.939,0,0,1,469.3,109.6Z" transform="translate(-441.13 -78.234)"/><path class="c" d="M449.722,93.241a24.754,24.754,0,0,0,5.359.141c.886-.073,1.75-.236,2.629-.357a2.788,2.788,0,0,1,1.938.216" transform="translate(-441.13 -78.234)"/><path class="c" d="M446.28,87.863s2.032,3.746,7.619,2.032" transform="translate(-441.13 -78.234)"/></g></svg>