<svg xmlns="http://www.w3.org/2000/svg" xmlns:xlink="http://www.w3.org/1999/xlink" width="40.296" height="40.296" viewBox="0 0 40.296 40.296"><defs><style>.a{fill:none;}.b{clip-path:url(#a);}.c{fill:#fff;}</style><clipPath id="a"><rect class="a" width="40.296" height="40.296"/></clipPath></defs><g class="b" transform="translate(0)"><rect class="c" width="37.778" height="1.259" transform="translate(2.519 10.074)"/><path class="c" d="M197.443,487.778H170.557l-3.321-2.656a.63.63,0,0,1,.786-.983L171,486.518h26l2.976-2.381a.63.63,0,1,1,.786.983Z" transform="translate(-162.592 -473.926)"/><path class="c" d="M185.673,508.748a.557.557,0,0,1-.394-.95l8.776-8.776,3.712-5.567,1.866-4.977a.557.557,0,1,1,1.043.39l-1.947,5.15-3.847,5.752-8.815,8.815A.554.554,0,0,1,185.673,508.748Z" transform="translate(-169.302 -475.45)"/><path class="c" d="M175.63,502.481a.593.593,0,0,1-.1-.009.629.629,0,0,1-.517-.724l.687-3.956,1.823-3.645v-2.922l-.611-2.444a.629.629,0,1,1,1.221-.3l.649,2.671v3.3l-1.913,3.826-.614,3.684A.63.63,0,0,1,175.63,502.481Z" transform="translate(-165.555 -475.407)"/><path class="c" d="M188.334,496.852l-3.014-1.507-.682-4.094-.62-2.469a.629.629,0,1,1,1.221-.3l.63,2.518.587,3.51,2.024,1.012,2.16-.54,2.947-2.358,2.459-4.3a.629.629,0,1,1,1.093.625l-2.578,4.512-3.349,2.679Z" transform="translate(-168.889 -475.407)"/><path class="c" d="M160.63,520.667a.63.63,0,0,1-.445-1.075l4.407-4.407a.629.629,0,0,1,.89.89l-4.407,4.407A.628.628,0,0,1,160.63,520.667Z" transform="translate(-160 -485.407)"/><path class="c" d="M176.63,530.148a.63.63,0,0,1-.445-1.075l1.889-1.889a.63.63,0,0,1,.89.89l-1.889,1.889A.628.628,0,0,1,176.63,530.148Z" transform="translate(-165.926 -489.852)"/><path class="c" d="M175.444,521.481A.628.628,0,0,1,175,521.3l-8.815-8.815a.629.629,0,0,1,0-.89l4.407-4.407a.629.629,0,0,1,.89,0L180.3,516a.629.629,0,0,1,0,.89l-4.407,4.407A.628.628,0,0,1,175.444,521.481Zm-7.924-9.444,7.924,7.924,3.517-3.517-7.924-7.924Z" transform="translate(-162.222 -482.444)"/><path class="c" d="M180.889,521.518a.628.628,0,0,1-.445-.185l-1.259-1.259a.63.63,0,0,1,.89-.89l1.259,1.259a.63.63,0,0,1-.445,1.075Z" transform="translate(-167.037 -486.889)"/><path class="c" d="M190.63,496.814a.63.63,0,0,1-.445-1.075l3.063-3.063,1.841-4.3a.63.63,0,1,1,1.157.5l-1.937,4.519-3.234,3.234A.628.628,0,0,1,190.63,496.814Z" transform="translate(-171.111 -475.407)"/><rect class="c" width="1.259" height="2.671" transform="translate(7.74 5.482) rotate(-45)"/><rect class="c" width="1.259" height="2.816" transform="matrix(0.894, -0.447, 0.447, 0.894, 13.918, 1.541)"/><rect class="c" width="2.671" height="1.259" transform="translate(32.296 6.481) rotate(-45)"/><rect class="c" width="2.816" height="1.259" transform="matrix(0.447, -0.894, 0.894, 0.447, 26.511, 3.496)"/><rect class="c" width="1.259" height="2.519" transform="translate(20.778)"/></g></svg>