<svg xmlns="http://www.w3.org/2000/svg" width="106.329" height="106.328" viewBox="0 0 106.329 106.328"><defs><style>.a{fill:#636162;}</style></defs><g transform="translate(-134 -117)"><path class="a" d="M795.054,462.112l-2.165-1.823a53.164,53.164,0,1,1,68.479,0l-2.165,1.823.229-2.821A32.368,32.368,0,0,0,843.1,428.474a20.8,20.8,0,0,1-31.936,0,32.367,32.367,0,0,0-16.334,30.817Zm47.4-36.664.889.468A34.724,34.724,0,0,1,861.9,456.66a50.8,50.8,0,1,0-69.54,0,34.723,34.723,0,0,1,18.559-30.743l.889-.468.6.8a18.426,18.426,0,0,0,29.436,0Z" transform="translate(-639.964 -249.454)"/><path class="a" d="M931.881,498.118a20.787,20.787,0,1,1,20.787-20.787A20.81,20.81,0,0,1,931.881,498.118Zm0-39.213a18.426,18.426,0,1,0,18.426,18.426A18.447,18.447,0,0,0,931.881,458.905Z" transform="translate(-744.717 -318.273)"/><path class="a" d="M886.64,663.65a53.24,53.24,0,0,1-34.24-12.494l-.377-.317-.04-.491a34.727,34.727,0,0,1,18.445-33.564l.889-.468.6.8a18.426,18.426,0,0,0,29.436,0l.6-.8.889.468A34.727,34.727,0,0,1,921.3,650.349l-.04.491-.377.317A53.238,53.238,0,0,1,886.64,663.65ZM854.3,649.667a50.7,50.7,0,0,0,64.677,0,32.367,32.367,0,0,0-16.371-30.326,20.8,20.8,0,0,1-31.936,0A32.365,32.365,0,0,0,854.3,649.667Z" transform="translate(-699.475 -440.322)"/></g></svg>