<svg xmlns="http://www.w3.org/2000/svg" width="27.422" height="27.422" viewBox="0 0 27.422 27.422"><defs><style>.a{fill:#999;}</style></defs><g transform="translate(-0.001)"><path class="a" d="M26.526,0H15.013A2.016,2.016,0,0,0,13,2.013v23.4a2.016,2.016,0,0,0,2.013,2.014H26.526a2.016,2.016,0,0,0,2.014-2.013V2.013A2.016,2.016,0,0,0,26.526,0ZM13.914,3.656H27.625V21.024H13.914Zm1.1-2.742H26.526a1.1,1.1,0,0,1,1.1,1.1v.729H13.914V2.013A1.1,1.1,0,0,1,15.013.914ZM26.526,26.508H15.013a1.1,1.1,0,0,1-1.1-1.1V21.938H27.625v3.471A1.1,1.1,0,0,1,26.526,26.508Z" transform="translate(-7.058)"/><path class="a" d="M27.828,49a1.828,1.828,0,1,0,1.828,1.828A1.83,1.83,0,0,0,27.828,49Zm0,2.742a.914.914,0,1,1,.914-.914A.915.915,0,0,1,27.828,51.742Z" transform="translate(-14.116 -26.605)"/><path class="a" d="M25.457,3.914h1.828a.457.457,0,1,0,0-.914H25.457a.457.457,0,0,0,0,.914Z" transform="translate(-13.574 -1.629)"/><path class="a" d="M32.457,3.914h.457a.457.457,0,0,0,0-.914h-.457a.457.457,0,1,0,0,.914Z" transform="translate(-17.374 -1.629)"/><path class="a" d="M55.685,4.41a.457.457,0,0,0-.646.646,4.385,4.385,0,0,1,0,6.194.457.457,0,1,0,.646.646A5.3,5.3,0,0,0,55.685,4.41Z" transform="translate(-29.811 -2.322)"/><path class="a" d="M51.474,6.686a.457.457,0,0,0-.646.646,3,3,0,0,1,0,4.24.457.457,0,1,0,.646.646,3.915,3.915,0,0,0,0-5.532Z" transform="translate(-27.524 -3.557)"/><path class="a" d="M2.2,5.056a.457.457,0,0,0-.646-.646,5.3,5.3,0,0,0,0,7.486A.457.457,0,1,0,2.2,11.25,4.384,4.384,0,0,1,2.2,5.056Z" transform="translate(0 -2.322)"/><path class="a" d="M6.886,6.41a.457.457,0,0,0-.646,0,3.915,3.915,0,0,0,0,5.532.457.457,0,0,0,.646-.646,3,3,0,0,1,0-4.24A.457.457,0,0,0,6.886,6.41Z" transform="translate(-2.766 -3.408)"/></g></svg>