<svg xmlns="http://www.w3.org/2000/svg" width="16.081" height="16.082" viewBox="0 0 16.081 16.082"><defs><style>.a{fill:#636162;}</style></defs><g transform="translate(0)"><path class="a" d="M20.932,0H14.181A1.182,1.182,0,0,0,13,1.181V14.9a1.182,1.182,0,0,0,1.181,1.181h6.751A1.182,1.182,0,0,0,22.113,14.9V1.181A1.182,1.182,0,0,0,20.932,0Zm-7.4,2.144h8.041V12.329H13.536ZM14.181.536h6.751a.645.645,0,0,1,.645.645v.428H13.536V1.181A.645.645,0,0,1,14.181.536Zm6.752,15.009H14.181a.645.645,0,0,1-.645-.645V12.865h8.041V14.9A.645.645,0,0,1,20.932,15.545Z" transform="translate(-9.516)"/><path class="a" d="M27.072,49a1.072,1.072,0,1,0,1.072,1.072A1.073,1.073,0,0,0,27.072,49Zm0,1.608a.536.536,0,1,1,.536-.536A.537.537,0,0,1,27.072,50.608Z" transform="translate(-19.032 -35.867)"/><path class="a" d="M25.268,3.536H26.34a.268.268,0,1,0,0-.536H25.268a.268.268,0,0,0,0,.536Z" transform="translate(-18.3 -2.196)"/><path class="a" d="M32.268,3.536h.268a.268.268,0,1,0,0-.536h-.268a.268.268,0,0,0,0,.536Z" transform="translate(-23.423 -2.196)"/><path class="a" d="M55.362,4.354a.268.268,0,0,0-.379.379,2.571,2.571,0,0,1,0,3.632.268.268,0,1,0,.379.379A3.108,3.108,0,0,0,55.362,4.354Z" transform="translate(-40.189 -3.13)"/><path class="a" d="M51.151,6.63a.268.268,0,1,0-.379.379,1.76,1.76,0,0,1,0,2.486.268.268,0,1,0,.379.379,2.3,2.3,0,0,0,0-3.244Z" transform="translate(-37.107 -4.796)"/><path class="a" d="M1.288,4.733a.268.268,0,1,0-.379-.379,3.108,3.108,0,0,0,0,4.39.268.268,0,1,0,.379-.379A2.571,2.571,0,0,1,1.288,4.733Z" transform="translate(-0.001 -3.13)"/><path class="a" d="M6.145,6.354a.268.268,0,0,0-.379,0,2.3,2.3,0,0,0,0,3.244.268.268,0,0,0,.379-.379,1.76,1.76,0,0,1,0-2.486A.268.268,0,0,0,6.145,6.354Z" transform="translate(-3.73 -4.594)"/></g></svg>