<svg xmlns="http://www.w3.org/2000/svg" xmlns:xlink="http://www.w3.org/1999/xlink" width="12.479" height="11.89" viewBox="0 0 12.479 11.89"><defs><style>.a{fill:none;}.b{clip-path:url(#a);}.c{fill:#fff;}</style><clipPath id="a"><rect class="a" width="12.479" height="11.89"/></clipPath></defs><g class="b" transform="translate(0)"><path class="c" d="M2.521,13.207a.223.223,0,0,1-.22-.261l.69-4.025L.068,6.071A.223.223,0,0,1,.192,5.69L4.232,5.1,6.04,1.442a.223.223,0,0,1,.2-.125h0a.223.223,0,0,1,.2.125L8.247,5.1l4.041.587a.223.223,0,0,1,.124.381L9.488,8.922l.69,4.024a.223.223,0,0,1-.324.235l-3.614-1.9-3.614,1.9A.225.225,0,0,1,2.521,13.207ZM.7,6.067,3.388,8.683a.223.223,0,0,1,.064.2l-.634,3.694,3.318-1.744a.222.222,0,0,1,.208,0l3.317,1.744L9.028,8.881a.224.224,0,0,1,.064-.2l2.684-2.616L8.067,5.528A.223.223,0,0,1,7.9,5.406L6.24,2.045,4.581,5.406a.223.223,0,0,1-.168.122Z" transform="translate(0 -1.317)"/></g></svg>